<svg width="54" height="37" viewBox="0 0 54 37" fill="none" xmlns="http://www.w3.org/2000/svg">
<g clip-path="url(#clip0_21_330)">
<path d="M26.9969 12.377C18.684 12.377 9.73447 10.4378 9.73447 6.18537C9.73447 1.93293 18.684 0 26.9969 0C35.3098 0 44.2594 1.93916 44.2594 6.19161C44.2594 10.4441 35.3098 12.3832 26.9969 12.3832V12.377ZM26.9969 2.4941C17.8249 2.4941 12.2067 4.88844 12.2067 6.19161C12.2067 7.49478 17.8187 9.88911 26.9969 9.88911C36.1751 9.88911 41.7871 7.49478 41.7871 6.19161C41.7871 4.88844 36.1751 2.4941 26.9969 2.4941Z" fill="#FCEA10"/>
<path d="M43.3879 25.184C44.2532 24.8598 50.0753 22.5964 53.4746 19.2917C53.2027 20.3081 52.8133 21.3868 52.2818 22.5029C49.9084 25.3649 44.4386 27.9088 42.0838 28.7943C41.6079 28.9688 41.3606 29.5113 41.5399 29.9914C41.6759 30.3718 42.0343 30.6025 42.4052 30.6025C42.5164 30.6025 42.6215 30.5838 42.7327 30.5464C43.3384 30.3157 46.3978 29.131 49.3398 27.304C45.1864 33.0592 38.9626 38.4527 32.9365 36.6382C29.8091 35.6967 27.3059 30.5277 29.9698 26.6181C34.4198 20.1023 48.6847 20.0275 51.6143 13.6925C52.2941 12.2147 52.3065 11.5351 52.7144 11.6286C53.3449 11.7782 53.9382 13.1064 54 15.139C53.2398 18.7555 45.6438 22.3408 42.7389 23.4319C42.263 23.6128 42.0158 24.149 42.195 24.6353C42.3372 25.0095 42.6895 25.2464 43.0665 25.2464C43.1716 25.2464 43.2828 25.2277 43.3879 25.184Z" fill="#52C0D9"/>
<path d="M10.6121 25.184C9.74682 24.8598 3.92469 22.5964 0.525352 19.2917C0.797299 20.3081 1.18668 21.3868 1.71821 22.5029C4.09156 25.3649 9.56141 27.9088 11.9162 28.7943C12.3921 28.9688 12.6393 29.5113 12.4601 29.9914C12.3241 30.3718 11.9657 30.6025 11.5948 30.6025C11.4836 30.6025 11.3785 30.5838 11.2673 30.5464C10.6616 30.3157 7.60215 29.131 4.66018 27.304C8.81355 33.0592 15.0374 38.4527 21.0635 36.6382C24.1909 35.6967 26.6941 30.5277 24.0302 26.6181C19.5802 20.1023 5.31533 20.0275 2.38572 13.6925C1.70585 12.2147 1.69349 11.5351 1.28557 11.6286C0.655145 11.7782 0.0618061 13.1064 0 15.139C0.760215 18.7555 8.35619 22.3408 11.2611 23.4319C11.737 23.6128 11.9842 24.149 11.805 24.6353C11.6628 25.0095 11.3105 25.2464 10.9335 25.2464C10.8284 25.2464 10.7172 25.2277 10.6121 25.184Z" fill="#52C0D9"/>
</g>
<defs>
<clipPath id="clip0_21_330">
<rect width="54" height="37" fill="white"/>
</clipPath>
</defs>
</svg>
