<svg width="33" height="37" viewBox="0 0 33 37" fill="none" xmlns="http://www.w3.org/2000/svg">
<path d="M33 20.4886C33 29.6052 25.6122 37 16.5043 37C7.3964 37 0 29.6052 0 20.4886C0 17.0021 1.08366 13.7566 2.93276 11.0966C2.42533 9.96882 0.378421 5.01024 1.45348 0C1.38468 3.40042 6.44175 5.61284 9.1595 5.69032C11.3698 4.58841 13.864 3.96859 16.5043 3.96859C19.1446 3.96859 21.6474 4.58841 23.8577 5.69893C26.541 5.68171 31.7701 3.45207 31.6927 0C32.8194 5.22545 30.5489 10.4079 30.1618 11.2257C31.9507 13.8685 33 17.0537 33 20.4886Z" fill="#1D1D1B"/>
</svg>
