<svg width="49" height="34" viewBox="0 0 49 34" fill="none" xmlns="http://www.w3.org/2000/svg">
<path fill-rule="evenodd" clip-rule="evenodd" d="M26.5463 5.48272C27.121 4.94455 27.4802 4.17895 27.4802 3.32947C27.4802 1.70059 26.1597 0.380119 24.5308 0.380119C22.9019 0.380119 21.5815 1.70059 21.5815 3.32947C21.5815 4.17876 21.9404 4.94421 22.5149 5.48236C20.3063 8.32561 17.6087 11.8162 16.8294 12.8877C15.5186 14.6901 14.0985 15.7278 12.2961 15.7278C10.4937 15.7278 9.456 15.0724 8.38412 14.0587C7.5312 13.2059 6.00234 11.5882 4.85446 10.3292C5.52899 9.78871 5.96093 8.95798 5.96093 8.02637C5.96093 6.39749 4.64046 5.07701 3.01157 5.07701C1.38269 5.07701 0.0622172 6.39749 0.0622172 8.02637C0.0622172 9.30836 0.880147 10.3993 2.02262 10.8058C2.79605 13.7636 3.8408 17.7657 4.43117 20.698C4.99328 23.49 6.42699 24.3322 8.87341 24.3322H40.1876C42.634 24.3322 44.0677 23.49 44.6298 20.698C45.2201 17.7658 46.2648 13.764 47.0382 10.8063C48.1814 10.4001 48.9999 9.30885 48.9999 8.02637C48.9999 6.39749 47.6795 5.07701 46.0506 5.07701C44.4217 5.07701 43.1012 6.39749 43.1012 8.02637C43.1012 8.95767 43.5329 9.78815 44.207 10.3287C43.0591 11.5877 41.5299 13.2058 40.6768 14.0587C39.605 15.0724 38.5672 15.7278 36.7648 15.7278C34.9625 15.7278 33.5424 14.6901 32.2316 12.8877C31.4523 11.8162 28.7549 8.32591 26.5463 5.48272Z" fill="url(#paint0_linear_14_242)"/>
<rect x="5.41476" y="27.4702" width="38.3416" height="6.00795" rx="3.00397" fill="url(#paint1_linear_14_242)"/>
<defs>
<linearGradient id="paint0_linear_14_242" x1="28.4379" y1="22.8948" x2="12.9707" y2="14.7899" gradientUnits="userSpaceOnUse">
<stop stop-color="#CEAB57"/>
<stop offset="0.13" stop-color="#D2B05E"/>
<stop offset="1" stop-color="#EACF8F"/>
</linearGradient>
<linearGradient id="paint1_linear_14_242" x1="27.6465" y1="33.1177" x2="23.448" y2="26.2459" gradientUnits="userSpaceOnUse">
<stop stop-color="#CEAB57"/>
<stop offset="0.13" stop-color="#D2B05E"/>
<stop offset="1" stop-color="#EACF8F"/>
</linearGradient>
</defs>
</svg>
