<svg width="51" height="30" viewBox="0 0 51 30" fill="none" xmlns="http://www.w3.org/2000/svg">
<g clip-path="url(#clip0_14_261)">
<path d="M47.9767 18.7476C47.8384 14.3482 46.6217 10.7348 38.8699 9.66134C38.114 7.69649 36.8605 5.97125 35.8926 4.63898C35.7083 4.38019 35.5332 4.14057 35.3672 3.91054C34.8603 3.19169 34.0399 2.80831 33.1827 2.77955C32.3255 2.77955 31.5236 3.21086 31.0443 3.91054L30.6111 4.49521C30.5005 4.64856 30.3806 4.80192 30.27 4.97444C29.5971 3.79553 28.8413 2.7508 28.2145 1.89776C28.021 1.62939 27.8366 1.38019 27.6707 1.14058C27.1545 0.421725 26.3342 0 25.4862 0C24.629 0.00958466 23.827 0.440895 23.3385 1.15016C23.1818 1.36102 23.0067 1.60064 22.8223 1.85942C22.1771 2.74121 21.4121 3.78594 20.7484 4.95527C20.6286 4.79233 20.518 4.63898 20.4074 4.49521L19.9926 3.92971C19.5041 3.21086 18.6929 2.77955 17.8449 2.77955H17.8265C16.9693 2.77955 16.1581 3.20128 15.6512 3.92013C15.4945 4.13099 15.3286 4.37061 15.1442 4.61981C14.1856 5.93291 12.9136 7.67732 12.1393 9.66134C4.39671 10.7444 3.18001 14.3482 3.04175 18.7476C1.02313 19.9936 0 21.4888 0 23.2045C0 26.1182 2.93114 28.3802 8.71968 29.9425C8.87638 29.9808 9.03307 30 9.18055 30C10.0009 30 10.7475 29.4249 10.9687 28.5623C11.2176 27.5367 10.6277 26.492 9.64142 26.2236C4.85758 24.9393 3.71462 23.492 3.68697 23.2045C3.68697 23.1086 4.03723 22.4473 5.67793 21.623C7.5675 20.6645 10.3235 19.8498 13.6787 19.2939L14.0658 19.2268C14.1395 19.2173 14.2133 19.1981 14.287 19.1885C14.499 19.1502 14.711 19.1118 14.9322 19.0927C15.0705 19.0639 15.218 19.0447 15.3654 19.0256C15.4023 19.016 15.4484 19.0064 15.4945 19.0064C15.642 18.9872 15.7894 18.9681 15.9461 18.9489C16.9048 18.8147 17.9002 18.7093 18.9234 18.623L19.2183 18.5942C19.4119 18.5847 19.5962 18.5655 19.7898 18.5559C20.0571 18.5367 20.3152 18.5176 20.5825 18.508C20.7853 18.4888 20.9973 18.4792 21.2001 18.4697C21.4305 18.4601 21.6517 18.4505 21.8822 18.4409H21.9006C21.9006 18.4409 21.9651 18.4313 21.9928 18.4313C22.002 18.4409 22.0112 18.4409 22.0204 18.4313H22.0665C22.0665 18.4313 22.131 18.4313 22.1679 18.4313H22.2232L22.5919 18.393C22.4997 18.4121 22.4076 18.4217 22.3062 18.4313C23.2832 18.3834 24.334 18.3642 25.5046 18.3642C25.7258 18.3642 25.9563 18.3642 26.1867 18.3738C26.4724 18.3642 26.7674 18.3738 27.0808 18.3738C27.5417 18.3738 27.9841 18.393 28.4265 18.4026C28.4726 18.4121 28.5187 18.4121 28.5648 18.4121H28.6477L29.0349 18.4313C29.7354 18.4601 30.4175 18.508 31.1272 18.5559C31.3024 18.5655 31.4775 18.5751 31.6434 18.5942C31.6803 18.6038 31.7079 18.6038 31.7448 18.6038C31.8738 18.6038 32.0121 18.623 32.1412 18.6326C32.2149 18.6326 32.3071 18.6422 32.3992 18.6518C32.7495 18.6805 33.109 18.7188 33.45 18.7572C33.5145 18.7668 33.5791 18.7668 33.6344 18.7668C33.7542 18.7668 33.8648 18.7572 33.9754 18.7284C34.1413 18.8147 34.3257 18.8626 34.5192 18.8818C34.8511 18.9201 35.1829 18.9585 35.5055 19.0064C35.5332 19.0064 35.5516 19.016 35.5793 19.016C35.7267 19.0351 35.8742 19.0543 36.0678 19.0831C36.3443 19.1214 36.6208 19.1693 36.8789 19.2077H36.8881C36.8881 19.2077 36.9342 19.2268 36.9619 19.2268C40.5106 19.8115 43.4048 20.6358 45.3405 21.623C46.9351 22.4281 47.3038 23.0799 47.313 23.2045C47.2854 23.492 46.1424 24.9393 41.3586 26.2236C40.3723 26.492 39.7824 27.5367 40.0405 28.5623C40.2525 29.4249 40.9991 30 41.8194 30C41.9761 30 42.1236 29.9808 42.2803 29.9425C48.0689 28.3802 51 26.1182 51 23.2045C51 21.4984 49.9861 20.0032 47.9767 18.7476ZM6.8762 17.0128C7.20802 15.3163 8.25881 14.2332 11.4665 13.639C11.4849 14.3866 11.531 15.0958 11.614 15.7668C9.86264 16.1214 8.26803 16.5335 6.8762 17.0128ZM18.1399 14.8466C17.8818 14.8754 17.6329 14.8946 17.3841 14.9233C16.7665 14.9808 16.1581 15.0479 15.559 15.1342C15.4576 15.1342 15.3562 15.1629 15.2548 15.1725C15.1811 14.5016 15.1442 13.7827 15.1442 13.0064C15.1442 12.6518 15.1995 12.2875 15.2917 11.9137C15.7065 10.2939 16.8863 8.58786 17.8265 7.29393C18.2689 7.90735 18.7575 8.59744 19.1907 9.32588C19.1538 9.623 19.1354 9.92971 19.1354 10.2364C19.1354 10.6581 19.1446 11.0703 19.163 11.4728C19.1722 11.7316 19.1907 11.9808 19.2183 12.23C19.246 12.6134 19.2828 12.9872 19.3382 13.3419C19.3658 13.5719 19.4027 13.8019 19.4488 14.0224C19.4948 14.2716 19.5409 14.5016 19.5962 14.7316C19.1077 14.77 18.6192 14.8083 18.1399 14.8466ZM35.7636 15.1725C35.4779 15.1342 35.1921 15.0958 34.8972 15.0671H34.8603C34.6944 15.0479 34.5285 15.0575 34.3718 15.0958C34.2059 15.0096 34.0215 14.9617 33.8279 14.9425C33.7358 14.9329 33.6344 14.9233 33.5422 14.9137C33.4039 14.9042 33.2657 14.885 33.1274 14.8754C33.0629 14.8658 32.9984 14.8562 32.9338 14.8562C32.8509 14.8466 32.7679 14.8466 32.685 14.8371L32.473 14.8179C32.39 14.8083 32.2978 14.7987 32.2057 14.7891C32.1135 14.7796 32.0213 14.77 31.9292 14.77H31.8831C31.6803 14.7604 31.4775 14.7891 31.3024 14.8562C31.3208 14.8083 31.33 14.77 31.3485 14.722C31.3577 14.6741 31.3669 14.6166 31.3853 14.5687C31.4406 14.3674 31.4867 14.1661 31.5236 13.9553C31.5512 13.8115 31.5789 13.6581 31.6065 13.5048C31.6342 13.3802 31.6526 13.246 31.6711 13.1118C31.7079 12.8722 31.7356 12.623 31.7632 12.3738C31.8001 12.0767 31.8185 11.7604 31.837 11.4441C31.8646 11.0511 31.8738 10.6486 31.8738 10.2364C31.8738 9.98722 31.8646 9.71885 31.837 9.43131C31.837 9.39297 31.837 9.36422 31.8278 9.33546C32.261 8.59744 32.7495 7.90735 33.2012 7.29393C34.1506 8.59744 35.3119 10.2939 35.7359 11.9521C35.8281 12.3067 35.8742 12.6613 35.8742 13.0064C35.8742 13.7827 35.8373 14.5112 35.7636 15.1725ZM39.4045 15.7764C39.4874 15.1054 39.5335 14.3866 39.552 13.639C42.7596 14.2332 43.8012 15.3067 44.1422 17.0032C42.7412 16.5431 41.1558 16.131 39.4045 15.7764Z" fill="url(#paint0_linear_14_261)"/>
</g>
<defs>
<linearGradient id="paint0_linear_14_261" x1="42.7312" y1="30" x2="2.52888" y2="23.1951" gradientUnits="userSpaceOnUse">
<stop stop-color="#B0B0B0"/>
<stop offset="0.5" stop-color="#E7E7E7"/>
<stop offset="1" stop-color="#B0B0B0"/>
</linearGradient>
<clipPath id="clip0_14_261">
<rect width="51" height="30" fill="white"/>
</clipPath>
</defs>
</svg>
