<svg width="35" height="34" viewBox="0 0 35 34" fill="none" xmlns="http://www.w3.org/2000/svg">
<g clip-path="url(#clip0_21_335)">
<path d="M18.2087 0.449757L23.0039 10.3497C23.1173 10.5891 23.34 10.7542 23.5992 10.7913L34.3236 12.3801C34.9716 12.475 35.2308 13.288 34.761 13.7543L27.0012 21.463C26.8149 21.6487 26.7299 21.9128 26.7744 22.1769L28.605 33.0591C28.7144 33.7152 28.038 34.2187 27.4589 33.9092L17.8685 28.7714C17.6377 28.6476 17.3623 28.6476 17.1314 28.7714L7.54103 33.9092C6.96188 34.2187 6.28148 33.7193 6.39488 33.0591L8.22548 22.1769C8.27003 21.9169 8.18498 21.6487 7.99868 21.463L0.238901 13.7543C-0.230897 13.288 0.0283021 12.475 0.6763 12.3801L11.4007 10.7913C11.6599 10.7542 11.8826 10.5891 11.996 10.3497L16.7912 0.449757C17.0828 -0.148617 17.9171 -0.148617 18.2087 0.449757Z" fill="url(#paint0_linear_21_335)"/>
</g>
<defs>
<linearGradient id="paint0_linear_21_335" x1="20.2942" y1="31.963" x2="7.11266" y2="28.483" gradientUnits="userSpaceOnUse">
<stop stop-color="#CE5782"/>
<stop offset="1" stop-color="#EA7BA3"/>
</linearGradient>
<clipPath id="clip0_21_335">
<rect width="35" height="34" fill="white"/>
</clipPath>
</defs>
</svg>
