<svg width="35" height="51" viewBox="0 0 35 51" fill="none" xmlns="http://www.w3.org/2000/svg">
<g clip-path="url(#clip0_14_342)">
<path d="M32.6874 14.0896C31.0238 13.6181 21.6545 10.8891 18.4826 9.96427C17.8336 9.77387 17.1664 9.77387 16.5174 9.96427C13.3455 10.8891 3.97624 13.6181 2.31262 14.0896C3.11701 11.5691 4.37844 9.32053 6.98355 7.0992C9.58867 4.88693 12.1024 4.3792 14.0859 3.95307C16.0603 3.52693 16.0878 1.8768 16.0878 1.4144C16.0878 0.952 16.1883 0.00906667 17.4863 0C18.7843 0.00906667 18.8848 0.942933 18.8848 1.4144C18.8848 1.88587 18.9123 3.52693 20.8958 3.95307C22.8702 4.3792 25.3839 4.88693 27.989 7.0992C30.6033 9.32053 31.8556 11.5691 32.6691 14.0896H32.6874Z" fill="url(#paint0_linear_14_342)"/>
<path d="M33.958 17.5531L18.7477 13.0833C17.925 12.8385 17.0567 12.8385 16.234 13.0833L1.04205 17.5531C0.420475 17.7345 0 18.2966 0 18.9313V31.7787C0 32.3227 0.310786 32.8214 0.795247 33.0662L15.7678 40.5734C16.8647 41.1265 18.1536 41.1265 19.2505 40.5734L34.2139 33.0662C34.6984 32.8214 35.0091 32.3227 35.0091 31.7787V18.9313C35.0091 18.2966 34.5887 17.7345 33.9671 17.5531H33.958ZM9.56124 29.2673C9.56124 30.2646 8.74771 31.0806 7.73309 31.0806C6.71846 31.0806 5.90494 30.2646 5.90494 29.2673V22.7483C5.90494 21.751 6.72761 20.935 7.73309 20.935C8.73857 20.935 9.56124 21.751 9.56124 22.7483V29.2673ZM15.7404 31.6518C15.7404 32.6491 14.9269 33.4651 13.9122 33.4651C12.8976 33.4651 12.0841 32.6491 12.0841 31.6518V20.3638C12.0841 19.3665 12.9068 18.5505 13.9122 18.5505C14.9177 18.5505 15.7404 19.3665 15.7404 20.3638V31.6518ZM22.9159 31.6518C22.9159 32.6491 22.0932 33.4651 21.0878 33.4651C20.0823 33.4651 19.2596 32.6491 19.2596 31.6518V20.3638C19.2596 19.3665 20.0731 18.5505 21.0878 18.5505C22.1024 18.5505 22.9159 19.3665 22.9159 20.3638V31.6518ZM29.0951 29.2673C29.0951 30.2646 28.2724 31.0806 27.2669 31.0806C26.2614 31.0806 25.4388 30.2646 25.4388 29.2673V22.7483C25.4388 21.751 26.2523 20.935 27.2669 20.935C28.2815 20.935 29.0951 21.751 29.0951 22.7483V29.2673Z" fill="url(#paint1_linear_14_342)"/>
<path d="M33.5558 46.1584C32.1847 46.6208 21.883 49.8122 18.5466 50.8368C17.8702 51.0453 17.139 51.0453 16.4625 50.8368C13.1262 49.8032 2.83365 46.6208 1.4534 46.1584C-0.319913 45.5509 -0.438743 43.9098 0.996358 43.1301C4.63438 41.1808 5.44791 38.7056 5.44791 38.7056L15.3748 43.6832C16.7185 44.3541 18.2998 44.3541 19.6344 43.6832L29.5613 38.7056C29.5613 38.7056 30.3656 41.1808 34.0128 43.1301C35.4479 43.9098 35.3291 45.5509 33.5558 46.1584Z" fill="url(#paint2_linear_14_342)"/>
</g>
<defs>
<linearGradient id="paint0_linear_14_342" x1="19.9249" y1="13.2442" x2="10.5534" y2="8.06277" gradientUnits="userSpaceOnUse">
<stop stop-color="#CE8257"/>
<stop offset="1" stop-color="#ECAC88"/>
</linearGradient>
<linearGradient id="paint1_linear_14_342" x1="20.2994" y1="39.3029" x2="7.5037" y2="35.2127" gradientUnits="userSpaceOnUse">
<stop stop-color="#CE8257"/>
<stop offset="1" stop-color="#ECAC88"/>
</linearGradient>
<linearGradient id="paint2_linear_14_342" x1="20.2975" y1="50.2559" x2="11.1053" y2="43.5437" gradientUnits="userSpaceOnUse">
<stop stop-color="#CE8257"/>
<stop offset="1" stop-color="#ECAC88"/>
</linearGradient>
<clipPath id="clip0_14_342">
<rect width="35" height="51" fill="white"/>
</clipPath>
</defs>
</svg>
