<svg width="49" height="43" viewBox="0 0 49 43" fill="none" xmlns="http://www.w3.org/2000/svg">
<path d="M38.39 0H10.41L0 16.35L24.4 42.77L48.8 16.35L38.39 0ZM36.19 4L42.65 14.13H33.59L30.77 4H36.19ZM24.4 33.33L19.48 18.13H29.32L24.4 33.33ZM22.18 4H26.62L29.44 14.13H19.36L22.18 4ZM12.61 4H18.03L15.22 14.13H6.16L12.61 4ZM7.09 18.13H15.28L19.7 31.78L7.09 18.13ZM29.1 31.78L33.52 18.13H41.72L29.1 31.78Z" fill="url(#paint0_linear_14_341)"/>
<defs>
<linearGradient id="paint0_linear_14_341" x1="35.624" y1="48.0225" x2="5.68148" y2="42.9742" gradientUnits="userSpaceOnUse">
<stop stop-color="#BFDADA"/>
<stop offset="0.5" stop-color="#D9F2F2"/>
<stop offset="1" stop-color="#CCD9D9"/>
</linearGradient>
</defs>
</svg>
