<?xml version="1.0" standalone="no"?>
<!DOCTYPE svg PUBLIC "-//W3C//DTD SVG 20010904//EN" "http://www.w3.org/TR/2001/REC-SVG-20010904/DTD/svg10.dtd">
<svg version="1.0" xmlns="http://www.w3.org/2000/svg"
    width="32.000000pt" height="32.000000pt" viewBox="0 0 98.000000 98.000000"
    preserveAspectRatio="xMidYMid meet">

    <g transform="translate(0.000000,98.000000) scale(0.100000,-0.100000)"
        fill="#d41e26" stroke="none">
        <path
            d="M376 964 c-289 -70 -452 -393 -335 -665 20 -47 23 -49 60 -49 l39 0
0 234 c0 129 4 246 10 260 l10 26 164 0 c190 0 186 2 186 -94 l0 -56 118 0
c160 0 152 10 152 -203 l0 -167 69 0 69 0 20 48 c119 276 -44 597 -339 667
-78 18 -145 18 -223 -1z" />
        <path
            d="M230 441 c0 -276 -1 -281 -63 -281 l-31 0 30 -31 c57 -60 167 -110
275 -123 118 -15 273 34 359 112 l45 41 -62 1 c-93 0 -93 0 -93 201 l0 169
-90 0 -90 0 0 -56 c0 -66 -13 -94 -43 -94 -43 0 -47 16 -47 167 l0 143 -95 0
-95 0 0 -249z" />
    </g>
</svg>